<svg width="54" height="54" viewBox="0 0 54 54" fill="none" xmlns="http://www.w3.org/2000/svg">
<path d="M4.5 49.5C4.5 44.7261 6.39642 40.1477 9.77208 36.7721C13.1477 33.3964 17.7261 31.5 22.5 31.5C27.2739 31.5 31.8523 33.3964 35.2279 36.7721C38.6036 40.1477 40.5 44.7261 40.5 49.5H36C36 45.9196 34.5777 42.4858 32.0459 39.9541C29.5142 37.4223 26.0804 36 22.5 36C18.9196 36 15.4858 37.4223 12.9541 39.9541C10.4223 42.4858 9 45.9196 9 49.5H4.5ZM22.5 29.25C15.0413 29.25 9 23.2087 9 15.75C9 8.29125 15.0413 2.25 22.5 2.25C29.9587 2.25 36 8.29125 36 15.75C36 23.2087 29.9587 29.25 22.5 29.25ZM22.5 24.75C27.4725 24.75 31.5 20.7225 31.5 15.75C31.5 10.7775 27.4725 6.75 22.5 6.75C17.5275 6.75 13.5 10.7775 13.5 15.75C13.5 20.7225 17.5275 24.75 22.5 24.75ZM41.139 33.0818C44.301 34.5058 46.9845 36.8128 48.8668 39.7253C50.7492 42.6379 51.7504 46.0321 51.75 49.5H47.25C47.2505 46.899 46.4997 44.3531 45.0879 42.1686C43.6762 39.984 41.6634 38.2537 39.2917 37.1858L41.139 33.0818ZM39.591 7.67925C41.8579 8.61367 43.7962 10.2005 45.1598 12.2383C46.5234 14.2761 47.2509 16.673 47.25 19.125C47.2509 22.2127 46.0973 25.1893 44.0157 27.4699C41.9341 29.7505 39.075 31.1703 36 31.4505V26.9212C37.6671 26.6825 39.2138 25.9155 40.4129 24.733C41.6121 23.5505 42.4006 22.0147 42.6626 20.3511C42.9246 18.6875 42.6465 16.9837 41.8689 15.4898C41.0913 13.9959 39.8553 12.7907 38.3423 12.051L39.591 7.67925Z" fill="#FFD6EE"/>
</svg>
