<svg width="20" height="16" viewBox="0 0 20 16" fill="none" xmlns="http://www.w3.org/2000/svg">
<g id="Show">
<path id="Fill 1" fill-rule="evenodd" clip-rule="evenodd" d="M9.99963 5.83789C8.78047 5.83789 7.78955 6.82972 7.78955 8.04889C7.78955 9.26714 8.78047 10.2581 9.99963 10.2581C11.2188 10.2581 12.2106 9.26714 12.2106 8.04889C12.2106 6.82972 11.2188 5.83789 9.99963 5.83789ZM9.99963 11.6331C8.02238 11.6331 6.41455 10.0252 6.41455 8.04889C6.41455 6.07164 8.02238 4.46289 9.99963 4.46289C11.9769 4.46289 13.5856 6.07164 13.5856 8.04889C13.5856 10.0252 11.9769 11.6331 9.99963 11.6331Z" fill="#8A7F85"/>
<g id="Group 5">
<mask id="mask0_83_32" style="mask-type:luminance" maskUnits="userSpaceOnUse" x="0" y="0" width="20" height="16">
<path id="Clip 4" fill-rule="evenodd" clip-rule="evenodd" d="M0.833496 0.66687H19.1667V15.4298H0.833496V0.66687Z" fill="white"/>
</mask>
<g mask="url(#mask0_83_32)">
<path id="Fill 3" fill-rule="evenodd" clip-rule="evenodd" d="M2.27243 8.04819C3.97743 11.8148 6.84935 14.0542 9.99993 14.0551C13.1505 14.0542 16.0224 11.8148 17.7274 8.04819C16.0224 4.28252 13.1505 2.04311 9.99993 2.04219C6.85027 2.04311 3.97743 4.28252 2.27243 8.04819ZM10.0018 15.4301H9.9981H9.99718C6.20585 15.4274 2.80135 12.7699 0.889184 8.31952C0.814934 8.14627 0.814934 7.95011 0.889184 7.77686C2.80135 3.32736 6.20677 0.669941 9.99718 0.667191C9.99902 0.666275 9.99902 0.666275 9.99993 0.667191C10.0018 0.666275 10.0018 0.666275 10.0027 0.667191C13.794 0.669941 17.1985 3.32736 19.1107 7.77686C19.1858 7.95011 19.1858 8.14627 19.1107 8.31952C17.1994 12.7699 13.794 15.4274 10.0027 15.4301H10.0018Z" fill="#8A7F85"/>
</g>
</g>
</g>
</svg>
