<svg width="20" height="17" viewBox="0 0 20 17" fill="none" xmlns="http://www.w3.org/2000/svg">
<g id="Hide">
<path id="Stroke 1" d="M4.88504 13.2524C2.84087 11.914 1.52087 9.89736 1.52087 8.12819C1.52087 5.12152 5.31587 1.43652 10 1.43652C11.9159 1.43652 13.6942 2.05069 15.1242 3.00402" stroke="#8A7F85" stroke-opacity="0.3" stroke-width="1.5" stroke-linecap="round" stroke-linejoin="round"/>
<path id="Stroke 3" d="M17.1957 4.8927C18.0124 5.92853 18.4882 7.07437 18.4882 8.12853C18.4882 11.1352 14.684 14.8202 9.99982 14.8202C9.16566 14.8202 8.35074 14.701 7.58899 14.4902" stroke="#8A7F85" stroke-opacity="0.3" stroke-width="1.5" stroke-linecap="round" stroke-linejoin="round"/>
<path id="Stroke 5" d="M7.95194 10.1698C7.40652 9.62987 7.10127 8.89379 7.10402 8.12654C7.10036 6.52696 8.39469 5.22712 9.99519 5.22437C10.7652 5.22254 11.504 5.52779 12.0485 6.07229" stroke="#8A7F85" stroke-opacity="0.3" stroke-width="1.5" stroke-linecap="round" stroke-linejoin="round"/>
<path id="Stroke 7" d="M12.8504 8.64087C12.6359 9.8252 11.7091 10.7538 10.5248 10.971" stroke="#8A7F85" stroke-opacity="0.3" stroke-width="1.5" stroke-linecap="round" stroke-linejoin="round"/>
<path id="Stroke 9" d="M17.2342 0.895752L2.77466 15.3553" stroke="#8A7F85" stroke-opacity="0.3" stroke-width="1.5" stroke-linecap="round" stroke-linejoin="round"/>
</g>
</svg>
