<svg width="44" height="43" viewBox="0 0 44 43" fill="none" xmlns="http://www.w3.org/2000/svg">
<path d="M11.6213 17.2666C12.3177 17.2637 12.8262 17.5621 13.0631 18.2312C13.3347 18.9959 13.5803 19.7722 13.8288 20.5456C14.0802 21.3248 14.4616 21.9388 15.4093 21.936C16.3599 21.936 16.7298 21.3277 16.9754 20.5369C17.7555 18.0255 18.5645 15.5229 19.3331 13.0086C19.6163 12.0788 19.9775 11.2649 21.1217 11.2794C22.211 11.2938 22.523 12.131 22.7888 12.9739C23.5834 15.4852 24.3896 17.9908 25.135 20.5137C25.3806 21.3421 25.7563 21.8954 26.678 21.9331C27.643 21.9707 28.0302 21.3161 28.2758 20.5572C29.0964 18.0082 29.8679 15.4447 30.7029 12.9015C30.9918 12.0209 31.4195 11.1635 32.5868 11.2967C33.4969 11.401 33.8928 12.0643 33.9621 12.8812C33.9968 13.2896 33.8263 13.727 33.6934 14.1354C31.9771 19.358 30.2522 24.5776 28.5272 29.7973C28.2209 30.7213 27.9464 31.7033 26.6953 31.6743C25.4615 31.6453 25.2102 30.675 24.9183 29.7394C24.1642 27.3178 23.3638 24.9108 22.6415 22.4776C22.3901 21.6347 21.9249 21.122 21.0754 21.0525C20.1162 20.9743 19.7376 21.7013 19.4949 22.4486C18.683 24.9484 17.8855 27.454 17.1314 29.974C16.8627 30.872 16.4408 31.6338 15.4527 31.6569C14.398 31.683 13.9473 30.9154 13.641 29.9595C12.5199 26.446 11.3237 22.9585 10.1882 19.4507C9.79523 18.2225 10.4656 17.2493 11.6213 17.2666Z" fill="#251B20"/>
<path d="M22.3063 42.9913C7.21788 42.971 -3.14927 28.3345 1.70781 14.37C1.75404 14.2338 1.79738 14.0919 1.8725 13.9702C2.10076 13.6024 2.07187 12.8116 2.71909 13.0607C3.39521 13.3214 2.83178 13.9094 2.69598 14.2715C-2.0773 27.144 6.8856 40.4567 19.8677 42.0296C22.3583 42.3308 24.8403 42.102 27.2732 41.459C27.6257 41.3663 28.0678 41.0679 28.2296 41.6299C28.3856 42.1686 27.8511 42.2179 27.513 42.3077C25.7042 42.7914 23.8608 43.0492 22.3063 42.9913Z" fill="#251B20"/>
<path d="M23.6759 39.2952C16.6257 39.2431 12.1789 37.1489 8.58453 33.166C8.4574 33.0241 8.34182 32.8706 8.21469 32.7258C7.95176 32.4245 7.67148 32.0479 8.08178 31.7496C8.4025 31.5179 8.66833 31.8684 8.88792 32.1377C10.454 34.0582 12.3436 35.576 14.5714 36.6709C23.6238 41.1201 34.4677 36.7231 37.9004 27.2077C37.9495 27.0716 38.0101 26.9412 38.0622 26.808C38.1951 26.4749 38.1691 25.8898 38.6892 26.0259C39.2815 26.1794 39.0214 26.724 38.8943 27.0977C37.7761 30.4056 35.8864 33.2066 33.1588 35.3703C29.9083 37.9512 26.2012 39.3416 23.6759 39.2952Z" fill="#251B20"/>
<path d="M22.0925 1.84017e-05C28.2903 0.0985027 33.5258 2.38971 37.7473 6.94896C38.0535 7.27917 38.8943 7.64414 38.4089 8.13656C37.8888 8.66664 37.5392 7.82083 37.2272 7.49352C34.2915 4.37388 30.7838 2.29992 26.6 1.30638C18.3623 -0.64882 9.33582 2.96324 4.73012 10.141C4.6261 10.3032 4.5452 10.477 4.44696 10.6421C4.24759 10.9868 3.97599 11.3779 3.5628 11.0969C3.14673 10.813 3.60325 10.5031 3.75061 10.254C5.04506 8.09022 6.6978 6.21322 8.66259 4.66644C12.5893 1.57866 17.0592 -0.0289476 22.0925 1.84017e-05Z" fill="#251B20"/>
<path d="M42.6014 23.1815C42.7372 18.3412 41.8646 14.5699 39.8189 11.0766C39.6138 10.7261 38.9752 10.2395 39.556 9.88897C40.079 9.57324 40.3275 10.2626 40.5586 10.6595C46.9471 21.6231 42.535 35.5123 31.171 40.9492C30.8445 41.1056 30.4168 41.4619 30.1626 41.01C29.8303 40.4191 30.4746 40.3119 30.8127 40.141C38.1171 36.4653 41.9282 30.4664 42.6014 23.1815Z" fill="#251B20"/>
<path d="M4.22156 21.7274C4.35736 12.4438 10.8354 5.07194 19.6307 3.81481C19.8185 3.78874 20.0121 3.75978 20.2028 3.76847C20.5553 3.78585 21.0899 3.58888 21.1216 4.14213C21.1534 4.71566 20.5929 4.54765 20.2519 4.59979C11.838 5.8685 6.16323 11.6096 5.17795 19.9257C4.80233 23.1033 5.50734 26.1128 6.85669 28.9892C7.02716 29.3541 7.66283 29.8379 6.9347 30.1652C6.37705 30.4143 6.28748 29.7307 6.11122 29.3889C4.81099 26.8688 4.28223 24.1634 4.22156 21.7274Z" fill="#251B20"/>
<path d="M39.7958 21.655C39.7467 22.0345 39.6687 22.6978 39.5647 23.3611C39.5185 23.6566 39.6485 24.1432 39.1226 24.0853C38.6343 24.0331 38.7412 23.5755 38.8019 23.28C39.2295 21.1481 38.9637 19.0452 38.3482 17.0205C36.2043 9.94407 31.3675 5.89752 24.1613 4.58536C23.7481 4.51005 22.942 4.83157 22.9998 4.17694C23.0633 3.46727 23.8637 3.80038 24.3144 3.86121C33.0982 5.05461 39.6167 12.4409 39.7958 21.655Z" fill="#251B20"/>
<path d="M36.0945 20.9047C36.054 28.3171 31.1161 34.1828 24.4704 35.3704C24.2826 35.4051 24.089 35.4428 23.9012 35.4312C23.5545 35.4109 23.0286 35.6745 22.9448 35.1241C22.8553 34.5361 23.4129 34.6723 23.7597 34.6115C25.4211 34.3276 27.0044 33.841 28.4809 32.9894C33.8581 29.8871 36.3719 23.784 34.6931 17.8257C34.6151 17.5505 34.4822 17.2898 34.4331 17.0117C34.3869 16.7481 34.2539 16.3716 34.5833 16.247C34.9878 16.0935 35.1468 16.4237 35.2681 16.7742C35.8055 18.3297 36.0858 19.9257 36.0945 20.9047Z" fill="#251B20"/>
<path d="M22.5201 7.41241C24.9443 7.39793 27.4147 8.1887 29.6742 9.66307C30.0441 9.90349 30.7058 10.1584 30.2781 10.7232C29.9054 11.2156 29.5327 10.6045 29.2177 10.4075C22.7859 6.41888 14.9817 8.13656 10.8296 14.4627C10.5898 14.8306 10.4366 15.5461 9.83854 15.1405C9.37046 14.8248 9.87321 14.37 10.0784 14.0311C12.6008 9.84845 17.2152 7.3371 22.5201 7.41241Z" fill="#251B20"/>
<path d="M7.97491 21.035C8.00092 20.783 8.0327 20.1574 8.15117 19.5491C8.20318 19.2855 8.11649 18.7554 8.65103 18.8858C9.06711 18.9872 8.99198 19.3463 8.94575 19.7084C8.26674 24.9947 10.2171 29.16 14.4009 32.3289C16.0306 33.5628 17.9318 34.1914 19.9081 34.6201C20.3184 34.7099 21.1274 34.4376 21.0205 35.1125C20.9223 35.7266 20.1277 35.4456 19.6856 35.3587C14.869 34.4 11.3353 31.7177 9.22891 27.2569C8.36498 25.4205 7.97491 23.445 7.97491 21.035Z" fill="#251B20"/>
</svg>
